<?xml version="1.0" standalone="no"?>
<!--<!DOCTYPE svg PUBLIC "-//W3C//DTD SVG 20010904//EN"-->
<!-- "http://www.w3.org/TR/2001/REC-SVG-20010904/DTD/svg10.dtd">-->
<svg version="1.0" xmlns="http://www.w3.org/2000/svg"
 width="512.000000pt" height="512.000000pt" viewBox="0 0 512.000000 512.000000"
 preserveAspectRatio="xMidYMid meet">

<g transform="translate(0.000000,512.000000) scale(0.100000,-0.100000)"
fill="#000000" stroke="none">
<path d="M2004 4715 c-85 -27 -165 -89 -214 -166 -53 -81 -61 -126 -67 -351
l-6 -208 -771 -2 c-730 -3 -773 -4 -806 -22 -49 -26 -88 -64 -113 -111 l-22
-40 -3 -1610 c-3 -1789 -7 -1666 65 -1740 20 -21 55 -46 77 -56 40 -18 125
-19 2416 -19 2291 0 2376 1 2416 19 22 10 57 35 77 56 72 74 68 -49 65 1740
-3 1549 -4 1611 -22 1645 -26 49 -64 88 -111 113 -40 22 -43 22 -811 25 l-771
2 -6 208 c-6 225 -14 270 -67 351 -50 79 -130 140 -219 167 -64 19 -1045 19
-1107 -1z m976 -560 l0 -165 -420 0 -420 0 0 165 0 165 420 0 420 0 0 -165z
m-155 -520 c491 -88 926 -447 1104 -910 70 -183 101 -347 101 -537 1 -664
-445 -1244 -1094 -1423 -218 -60 -534 -60 -752 0 -325 89 -630 299 -817 562
-320 450 -366 1040 -118 1530 85 170 273 393 421 503 206 152 443 250 686 285
122 18 343 13 469 -10z"/>
<path d="M2325 3106 c-41 -18 -92 -77 -104 -123 -6 -21 -11 -129 -11 -240 l0
-203 -190 0 c-219 0 -277 -9 -326 -52 -66 -58 -69 -70 -69 -298 0 -194 1 -207
23 -247 12 -24 41 -55 64 -70 l41 -28 228 -3 228 -3 3 -222 c3 -208 4 -225 26
-264 12 -24 41 -55 64 -70 l42 -28 216 0 216 0 42 28 c23 15 52 46 64 70 22
39 23 56 26 264 l3 222 228 3 228 3 41 28 c23 15 52 46 64 70 22 40 23 53 23
247 0 228 -3 240 -69 298 -49 43 -107 52 -326 52 l-190 0 0 203 c0 111 -5 219
-11 240 -13 47 -63 106 -106 123 -45 19 -425 19 -468 0z"/>
</g>
</svg>
